<?xml version="1.0" encoding="utf-8"?>
<!-- Generator: Adobe Illustrator 24.1.0, SVG Export Plug-In . SVG Version: 6.00 Build 0)  -->
<svg version="1.1" id="Layer_1" xmlns="http://www.w3.org/2000/svg" xmlns:xlink="http://www.w3.org/1999/xlink" x="0px" y="0px"
	 viewBox="0 0 299.5 248.5" style="enable-background:new 0 0 299.5 248.5;" xml:space="preserve">
<style type="text/css">
	.st0{fill:#341F0F;}
	.st1{fill:#FFF4E8;}
	.st2{fill:#533F30;}
</style>
<path class="st0" d="M211.97,209.74l-1.6-0.37c-0.17,0.78-0.73,1.74-1.5,2.5c-0.77,0.77-1.73,1.33-2.5,1.51l-51.83,12
	c-0.99,0.23-2.44,0.37-3.89,0.36c-1.44,0.01-2.9-0.13-3.88-0.36l-51.84-12c-0.77-0.18-1.74-0.74-2.5-1.51
	c-0.76-0.76-1.33-1.72-1.5-2.5L56.3,58.65v0l-0.08-0.66c-0.02-1.35,0.95-2.83,2.16-3.26l88.79-34.18c0.84-0.33,2.17-0.54,3.48-0.54
	c1.31-0.01,2.64,0.21,3.49,0.54l88.79,34.18c1.21,0.43,2.18,1.91,2.16,3.26L245,58.66v-0.01l-34.64,150.72L211.97,209.74l1.6,0.37
	l34.67-150.86l-0.04,0.14c0.11-0.46,0.16-0.93,0.16-1.39c-0.02-2.72-1.64-5.29-4.26-6.33l-88.79-34.18
	c-1.4-0.53-3.03-0.75-4.67-0.75c-1.64,0-3.27,0.22-4.67,0.75L57.2,51.66c-2.62,1.04-4.24,3.61-4.27,6.33c0,0.46,0.05,0.94,0.16,1.4
	l0,0l34.64,150.72c0.36,1.56,1.25,2.95,2.38,4.09c1.13,1.13,2.52,2.01,4.08,2.38l51.84,12c1.36,0.31,2.98,0.44,4.62,0.45
	c1.64,0,3.27-0.13,4.63-0.45l51.83-12c1.56-0.37,2.95-1.25,4.09-2.38c1.13-1.14,2.01-2.53,2.38-4.09L211.97,209.74z"/>
<g>
	<path class="st1" d="M211.97,209.74c-0.54,2.34-2.89,4.69-5.23,5.24l-51.84,12c-2.34,0.54-6.17,0.54-8.51,0l-51.83-12
		c-2.34-0.54-4.69-2.9-5.23-5.24L54.7,59.02c-0.54-2.34,0.85-4.96,3.09-5.82l88.79-34.18c2.24-0.86,5.91-0.86,8.15,0l88.79,34.18
		c2.24,0.86,3.64,3.48,3.1,5.82L211.97,209.74z"/>
	<path class="st0" d="M211.97,209.74l-1.6-0.37c-0.17,0.78-0.73,1.74-1.5,2.5c-0.77,0.77-1.73,1.33-2.5,1.51l-51.83,12
		c-0.99,0.23-2.44,0.37-3.89,0.36c-1.44,0.01-2.9-0.13-3.88-0.36l-51.84-12c-0.77-0.18-1.74-0.74-2.5-1.51
		c-0.76-0.76-1.33-1.72-1.5-2.5L56.3,58.65v0l-0.08-0.66c-0.02-1.35,0.95-2.83,2.16-3.26l88.79-34.18c0.84-0.33,2.17-0.54,3.48-0.54
		c1.31-0.01,2.64,0.21,3.49,0.54l88.79,34.18c1.21,0.43,2.18,1.91,2.16,3.26L245,58.66v-0.01l-34.64,150.72L211.97,209.74l1.6,0.37
		l34.67-150.86l-0.04,0.14c0.11-0.46,0.16-0.93,0.16-1.39c-0.02-2.72-1.64-5.29-4.26-6.33l-88.79-34.18
		c-1.4-0.53-3.03-0.75-4.67-0.75c-1.64,0-3.27,0.22-4.67,0.75L57.2,51.66c-2.62,1.04-4.24,3.61-4.27,6.33c0,0.46,0.05,0.94,0.16,1.4
		l0,0l34.64,150.72c0.36,1.56,1.25,2.95,2.38,4.09c1.13,1.13,2.52,2.01,4.08,2.38l51.84,12c1.36,0.31,2.98,0.44,4.62,0.45
		c1.64,0,3.27-0.13,4.63-0.45l51.83-12c1.56-0.37,2.95-1.25,4.09-2.38c1.13-1.14,2.01-2.53,2.38-4.09L211.97,209.74z"/>
	<path class="st0" d="M81.79,156.57l10.89,49.4c0.5,2.3,1.44,4.81,4.68,5.54l49.53,10.06c3,0.69,4.73,0.66,7.52,0l49.54-10.06
		c2.77-0.66,3.75-1.28,4.67-5.54l10.88-49.4H81.79z"/>
</g>
<g>
	<path class="st1" d="M203.13,62.93l0.65,1.03l0.06,0.09c1.79,1.69,3.01,2.3,5.06,6.21c0.85,1.61,0.2,2.99,1.04,4.27
		c0.41,0.64,1.32,1.73,2.14,3.06c0.38,0.61,0.84,0.29,0.77,0.77c-0.03,0.19,0.02,1.76,0.3,2c4.2,5.08,2.92,3.97,2.97,4.25l0.05,0.16
		c0.19,0.72,0.58,2.17-0.32,3.96c0.16,1.27,0.3,4.86-2.5,7.68c-0.56,1.29-3.27,6.72-9.6,6.72l-0.33,0l-0.32,0.41l2.49,11.98
		l0.11,0.08c1.18,0.83,12.07,14.44,15.9,22.69l0.79,1.7l-66.07,2.4l-0.34-0.61c-0.34-0.6-8.18-14.85-8.2-36.14
		c-0.17-1.43-1.48-16.69,15.41-43.72c6.63-10.61,10.5-16.71,10.54-16.77l0.06-0.08c0.23-0.29,2.23-2.85,4.64-2.85
		c1.29,0,3.06,0.72,4.16,4.17c1.75,5.47,2.55,8.14,2.82,9.62c2.09,0.05,5.85,0.37,8.55,1.84c1.29-0.64,4.52-2.36,6.79-4.49
		c0,0,4.92-3.23,3.97,0.77C203.75,58.08,202.85,61.55,203.13,62.93"/>
	<path class="st0" d="M202.1,65.28l0.29,0.81l0.24,0.41c0,0,3.35,2.24,4.59,5.46c0.88,2.28,1.18,2.52,2.11,4.27
		c0.55,1.03,0.65,1.42,0.15,2.56l-0.29-0.04c0,0,5.13,5.21,5.43,6.63c0.13,0.58,0.73,1.27,0.19,3.77c0,0-0.19,3.89-3.21,6.77
		c0,0-2.37,6.35-8.84,5.9c0,0-0.99,0.45-1.45,2.18l2.93,11.65c0,0,11.6,13.68,15.16,21.36l-60.62,2.28c0,0-7.68-13.71-7.68-34.02
		c0,0-0.14-13.45,14.54-41.05c5.97-11.24,10.06-16.01,10.06-16.01s4.29-5.67,6.39,0.91c2.1,6.58,2.83,9.15,2.75,9.97
		c0,0,5.95-0.18,9.14,1.92c0,0,3.88-3.03,7.2-5.03c0,0,3.17-1.96,2.22,0.41c-0.96,2.36-1.64,6.13-1.46,8.31L202.1,65.28z"/>
	<path class="st1" d="M202.92,82.67c0,0,2.28-2.59,2.34-6.07c0.03-1.61-2.69-5.56-4.13-7.18c-2.53-2.86-1.77-3.02,4.83,4.19
		c1.47,2.33,0.79,1.68,1.83,5.55l2.63,2.63c0,0,4.39,3.35,3.19,6.58c0,0-0.3,4.54-2.77,6.63c0,0-1.92,5.04-8.17,5.59
		c0,0-6.11-0.87-7.79-1.26c-2.64-0.62-3.81-0.85-6.45-2.15c-3.14-1.54-3.94-2.46-6.43-4.9c-1.29-1.27-6.47-6.14-7.47-10.9l1.2,2.28
		c0,0,5.61,8.21,9.57,9.44c7.49,2.31,16.88-1.5,12.9-6.96C196.99,84.45,200.1,85.53,202.92,82.67"/>
	<path class="st0" d="M211.97,91.05c0,0,2.75-3.6,0.09-6.21c0,0-1.71-1.29-2.79,2.09l2.6,1.14l-2.75-0.14
		C209.13,87.92,212.54,89.05,211.97,91.05"/>
	<path class="st0" d="M210.37,96.6c0,0,2.12-2.93,0.25-2.74c-0.83,0.09-8.53,6.21-14.89,1.33c0,0,3.66,5.29,12.9,0.48
		C208.63,95.67,210.81,94.26,210.37,96.6"/>
	<path class="st1" d="M196,75.39c0,0,6.16-0.49,6.04,2.38l0.09,2.01l0.54,0.55c0,0-2.55,0.38-3.29-0.14c0,0,4.45-3.78-1.53-3.86
		C197.23,76.32,196.99,75.62,196,75.39"/>
	<path class="st1" d="M200,79.45c0,0-1.8-0.25-3.88-2.47c0,0,1.55,2.51,3.27,3.21c0,0,0.68,0.39,2.22-0.23
		C202.19,79.72,200,79.45,200,79.45"/>
	<path class="st1" d="M200.6,78.79c0,0-1.04,0.95-2.75-0.28c0,0,1.18,1.05,2.05,1.12c0,0,0.37,0.09,0.88-0.5
		c0.2-0.23-0.09-0.19-0.09-0.19"/>
	<path class="st1" d="M182.73,60.12c0,0-1.6-12.81-4.1-12.12c0,0-8.51,6.35-7.1,16.57l0.5,2.97c0,0,0.28-9.44,4.16-15.49
		c0,0,0.46,9.47,0.09,11.66l1.58-3.44l1.2,1.99l1.01-3.46l1.32,1.98L182.73,60.12z"/>
	<path class="st2" d="M169.44,64.14c-1.74,4.2-0.37,6.86-0.37,6.86l3.56,0.09C170.26,70.63,169.44,64.14,169.44,64.14"/>
	<path class="st1" d="M196.54,61.14l3.96-3.58c0,0,1.27-1,0.44,1.38c-1.16,3.31-0.28,5.76-0.28,5.76S197.28,61.23,196.54,61.14"/>
	<path class="st1" d="M169.8,65.69c0,0,1.1,4.67,2.2,6.31C172,72.01,168.98,74.75,169.8,65.69"/>
	<path class="st1" d="M200.05,84.52c0,0-2.97,1.31-8.64-0.52c0,0,4.61,2.64,7.4,2.57c0,0-3.59,0.44-4.76,0.15c0,0,4,1.81,6.04,1.95
		C202.13,88.82,200.05,84.52,200.05,84.52"/>
	<path class="st0" d="M211.8,91.47c0,0-0.67,2.4-2.03,3.32C209.77,94.8,211.55,96.08,211.8,91.47"/>
	<path class="st1" d="M145.62,128.96c-1.62,0-3.26-0.09-4.87-0.26c-17.06-1.86-29.68-6.82-34.43-8.69c-0.77-0.3-1.49-0.59-1.73-0.66
		l-0.69-0.31c-0.32-0.32-0.92-0.93-0.69-14.98l-1.1-7.15l4.92,6.52c-3.1-6.08-4.96-10.31-6.53-12.14
		c-2.18-0.25-12.88-1.79-16.83-7.94l0.04,0.55l0.22,1.97l-1.69-1.01c-0.36-0.21-8.75-5.44-7.86-23.45c-0.08-0.32-0.14-0.9,0.2-1.45
		c0.14-0.23,0.39-0.5,0.8-0.69h-0.16L75,58.61c-0.04-0.11-0.95-2.78,0.35-4.7c0.75-1.1,2.01-1.71,3.76-1.79
		c4.4-0.21,12.69-1.07,14.31-1.23c0.62-0.49,2.56-2.14,4.17-4.66l0.11-0.17l0.18-0.12c0.18-0.12,1.03-0.66,1.93-0.79
		c0.18-0.82,0.49-1.91,0.97-2.48c0.62-0.74,3.78-2.58,5.12-3.34l0.07-0.04l0.07-0.03c0.13-0.05,3.39-1.28,6.78-1.28
		c1.19,0,2.28,0.15,3.21,0.46l1.5,0.49c1.89-0.81,3.8-1.42,5.32-1.46l0.41-0.01c4.6,0,10.25,1.88,12.38,2.6
		c0.4,0.13,0.75,0.26,1.08,0.39c0.89,0.33,1.43,0.53,2.35,0.53c0.46,0,1-0.05,1.63-0.15c0.8-0.13,1.52-0.19,2.22-0.19
		c3.12,0,5.68,1.32,7.6,3.92c0.61,0.82,1.43,1.94,2.35,3.21c2.94,4.05,7.4,10.18,8.84,11.54c2.96,2.79,2.23,9.46-0.48,12.96
		c-2.39,3.1-4.87,6.17-5.89,7.41l5.25,7.51c0.91,0.26,3.11,1.1,4.57,3.33c1.36,2.07,1.72,4.74,1.08,7.94
		c10.92,16.61,11.02,16.92,11.07,17.07c0.08,0.23,0.11,0.58-0.17,0.97C176.01,118.05,163.67,128.96,145.62,128.96L145.62,128.96z"/>
	<path class="st0" d="M110.47,45.51c0,0,8.14-5.46,12.49-5.58c4.35-0.11,10.04,1.78,12.05,2.45c2,0.67,2.56,1.23,5.35,0.78
		c2.79-0.45,6.02-0.23,8.59,3.23c2.56,3.46,9.03,12.6,10.93,14.39c1.89,1.79,2.45,7.36-0.56,11.26c-3.01,3.9-6.14,7.7-6.14,7.7
		l5.69,8.14c0,0,7.03,1.34,5.01,10.26c0,0,10.71,16.28,10.82,16.62c0.11,0.33-13.83,13.72-34.35,11.49
		c-20.52-2.23-34.35-9.14-35.02-9.03c-0.66,0.11-0.44-13.83-0.44-13.83l7.7,10.04c0,0-8.14-20.85-10.82-23.31
		c0,0-15.62-1.45-17.07-10.26c0,0-0.78,2.12-0.55,4.12c0,0-8.03-4.79-7.13-21.97c0,0-0.46-1.12,1-1.23
		c1.44-0.11,0.45-1.67-0.45-1.67c0,0-1.67-4.79,3.12-5.02c4.8-0.22,14.17-1.22,14.17-1.22s2.46-1.79,4.46-4.91
		c0,0,1.33-0.89,2.12-0.56c0,0,0.34-2.12,0.9-2.79c0.56-0.67,4.68-3.01,4.68-3.01s5.24-2.01,9.03-0.78
		C116.05,40.83,111.92,44.05,110.47,45.51"/>
	<path class="st1" d="M87.05,55.77c0,0,11.49-1.23,20.41-0.89c0,0-8.59,2.9-12.05,3.34c0,0,9.04,6.36,12.72,10.26
		c0,0-4.68,0-9.04-1.79c0,0,5.13,4.01,6.92,4.57c0,0,0.89,1-1.56,2.12c-2.46,1.11-2.9,1.78-2.9,1.78s4.35,1.23,9.59,0.67
		c5.24-0.56,7.47-1.22,10.7-0.22c0,0,2.12,0.56,0.11,1c-2.01,0.45-3.9,1.12-6.8,4.69c-2.9,3.57-5.68,6.14-14.72,3.79
		c-9.03-2.34-8.37-6.02-8.37-6.02l0.55-0.23c0,0-3-3.45-4.68-4.57c0,0-1.89-0.33-2.79-1.11c-0.9-0.78-0.56-5.02-1.22-6.13
		c0,0-0.23,5.46-0.79,7.47c-0.55,2.01-0.89,4.02-0.55,4.69c0.33,0.67-4.24-3.68-2.9-15.73c0,0,0.11-0.67,1.9,0
		c1.79,0.67,6.14,1.56,9.37-2.01c0,0,1.67-1.78-0.78-1c-2.45,0.78-2.35,0.23-0.44-1.34C91.62,57.55,90.18,55.77,87.05,55.77"/>
	<path class="st1" d="M112.37,54.87c0,0,1.22-3.12,3.91-2.79c0,0,3.57-1.56,8.59,2.34l1.23,1.12l-4.01,1.79c0,0-1.8,1.28-5.24,0.33
		c0,0,5.14,1.26,4.75-2.54c0,0-1.03-2.45-4.23-1.44c-2.53,0.8-2.42,2.3-2.42,2.3S114.38,55.21,112.37,54.87"/>
	<path class="st1" d="M147.39,51.3c0,0-3.34-4.46-6.58-1.67c-3.23,2.79-4.91,9.14-5.47,11.82l2.57-3.57l1.56,1.11
		c0,0,1.9-2.9,1.9-4.8c0-1.9,2.9,5.69-0.56,12.38c-3.46,6.69-4.8,8.93-4.35,12.49c0.45,3.57,2.34,5.69,3.79,4.46
		c1.45-1.23,3.68-3.23,6.57-3.91c2.9-0.67-3.01-0.55-4.01-0.22c-1,0.33,10.71-3.67,13.16-8.36c-0.33,0.33-8.48,4.69-10.37,4.69
		c-1.89,0-5.02,2.33-5.13,3.01c-0.11,0.67,0.56-6.69,2.79-11.82c2.23-5.13,0.56-11.93-0.89-14.05c-1.45-2.12,1.45-2.79,4.46-1.56
		C149.84,52.53,147.39,51.3,147.39,51.3"/>
	<path class="st1" d="M156.2,91.9c0,0-8.25,13.05-23.42,17.96c0,0,9.92-0.56,12.27-2.23c0,0-2.68,4.35-5.02,5.36
		c0,0,12.49-3.9,16.06-6.8c0,0-1.12,0.89-4.13,1.56c0,0,8.47-6.47,9.14-11.82c0.67-5.35-2.01-4.46-2.01-4.46s-2.57,5.35-7.14,8.48
		C151.96,99.93,160.44,88,156.2,91.9"/>
	<path class="st0" d="M149.84,105.79c0,1.08-0.55,1.95-1.23,1.95c-0.67,0-1.22-0.87-1.22-1.95c0-1.08,0.55-1.96,1.22-1.96
		C149.29,103.83,149.84,104.71,149.84,105.79"/>
	<path class="st0" d="M155.53,101.77c0,1.08-0.55,1.96-1.22,1.96c-0.68,0-1.23-0.88-1.23-1.96c0-1.08,0.55-1.95,1.23-1.95
		C154.98,99.82,155.53,100.69,155.53,101.77"/>
	<path class="st0" d="M159.33,97.42c0,1.08-0.55,1.95-1.23,1.95c-0.68,0-1.23-0.87-1.23-1.95c0-1.07,0.55-1.94,1.23-1.94
		C158.78,95.47,159.33,96.35,159.33,97.42"/>
</g>
<polygon class="st1" points="278.38,180.45 265.27,180.45 218.75,180.45 224.28,154.82 235.94,130.95 265.27,130.95 278.38,130.95 
	267.97,154.82 "/>
<polygon class="st0" points="278.38,180.45 278.38,178.82 265.27,178.82 220.76,178.82 225.82,155.36 236.96,132.57 265.27,132.57 
	275.9,132.57 266.21,154.8 276.88,181.06 278.38,180.45 278.38,178.82 278.38,180.45 279.88,179.84 269.73,154.84 280.86,129.32 
	265.27,129.32 234.93,129.32 222.73,154.29 216.73,182.08 265.27,182.08 280.79,182.08 279.88,179.84 "/>
<polygon class="st1" points="261.01,156.28 223.99,156.34 218.91,179.19 261.01,171.3 "/>
<polygon class="st0" points="261.01,156.28 261.01,154.65 222.68,154.72 216.79,181.24 262.63,172.65 262.63,154.65 261.01,154.65 
	261.01,156.28 259.39,156.28 259.39,169.95 221.03,177.14 225.29,157.96 261.01,157.9 261.01,156.28 259.39,156.28 "/>
<polygon class="st1" points="23.29,180.45 36.4,180.45 82.64,180.45 77.11,154.82 65.73,130.95 36.4,130.95 23.29,130.95 
	33.7,154.82 "/>
<path class="st0" d="M35.46,154.8l-9.69-22.23H36.4h28.3l10.85,22.78l5.07,23.48H36.4H25.71L35.46,154.8z M36.4,129.32H20.81
	l11.13,25.52l-11.06,27.24h2.41H36.4h48.25l-6-27.79l-11.89-24.97H36.4z"/>
<polygon class="st1" points="40.62,156.33 78.35,155.71 82.49,179.2 40.62,171.36 "/>
<polygon class="st0" points="40.62,156.33 40.65,157.96 76.98,157.35 80.48,177.18 42.24,170 42.25,156.33 40.62,156.33 
	40.65,157.96 40.62,156.33 39,156.33 39,172.7 84.49,181.23 79.7,154.06 39,154.74 39,156.33 "/>
<polygon class="st0" points="74.4,134.4 74.4,134.05 72.26,134.05 70.76,128.62 62.61,128.62 62.61,128.97 62.61,142.18 
	62.61,142.53 68.61,142.53 69.91,139.77 71.25,139.77 71.25,139.42 70.9,139.42 70.9,147.9 71.25,147.9 71.25,147.55 69.91,147.55 
	68.7,145.09 68.6,144.89 62.61,144.89 62.61,145.24 62.61,158.25 62.61,158.43 64.82,159.94 64.82,161.21 65.17,161.21 
	65.17,160.86 55.63,160.86 55.63,161.21 55.98,161.21 55.98,159.94 58.08,158.54 58.24,158.43 58.24,158.25 58.24,129.02 
	58.24,128.86 56.33,127.3 56.33,126.01 55.98,126.01 55.98,126.36 74.4,126.36 74.4,126.01 74.06,126.01 74.06,134.4 74.4,134.4 
	74.4,134.05 74.4,134.4 74.76,134.4 74.76,125.66 74.4,125.66 55.98,125.66 55.63,125.66 55.63,127.46 55.63,127.63 57.67,129.29 
	57.89,129.02 57.54,129.02 57.54,158.25 57.89,158.25 57.69,157.96 55.44,159.46 55.28,159.57 55.28,161.21 55.28,161.56 
	55.63,161.56 65.17,161.56 65.52,161.56 65.52,159.75 65.52,159.57 63.15,157.96 62.96,158.25 63.31,158.25 63.31,145.24 
	62.96,145.24 62.96,145.59 68.17,145.59 69.38,148.06 69.47,148.25 71.25,148.25 71.6,148.25 71.6,147.9 71.6,139.42 71.6,139.07 
	69.69,139.07 69.47,139.07 68.16,141.83 62.96,141.83 62.96,142.18 63.31,142.18 63.31,128.97 62.96,128.97 62.96,129.32 
	70.22,129.32 71.73,134.75 74.4,134.75 74.76,134.75 74.76,134.4 "/>
<polygon class="st0" points="159.49,127.46 159.83,127.46 159.83,126.36 168.02,126.36 168.02,127.28 166.27,128.48 166.12,128.58 
	166.12,142.18 174.94,142.18 174.94,128.58 173.04,127.28 173.04,126.36 181.23,126.36 181.23,127.28 179.47,128.48 179.32,128.58 
	179.32,158.76 181.58,159.96 181.58,160.86 172.74,160.86 172.74,159.96 174.76,158.86 174.94,158.76 174.94,144.34 166.12,144.34 
	166.12,158.76 168.37,159.96 168.37,160.86 159.48,160.86 159.48,159.96 161.55,158.86 161.74,158.76 161.74,128.58 159.68,127.18 
	159.49,127.46 159.83,127.46 159.49,127.46 159.29,127.76 161.04,128.96 161.04,158.34 158.96,159.44 158.78,159.54 158.78,161.21 
	158.78,161.56 169.07,161.56 169.07,159.75 169.07,159.54 166.81,158.34 166.81,145.04 174.24,145.04 174.24,158.34 172.22,159.45 
	172.04,159.54 172.04,161.21 172.04,161.56 182.28,161.56 182.28,159.75 182.28,159.54 180.01,158.34 180.01,128.96 181.78,127.76 
	181.92,127.65 181.92,126.01 181.92,125.66 172.34,125.66 172.34,127.46 172.34,127.65 174.24,128.96 174.24,141.48 166.81,141.48 
	166.81,128.96 168.57,127.76 168.72,127.65 168.72,126.01 168.72,125.66 159.13,125.66 159.13,127.46 159.13,127.65 159.29,127.76 
	"/>
<polygon class="st0" points="194.58,158.25 194.39,158.54 196.44,159.94 196.44,161.21 196.79,161.21 196.79,160.86 187.25,160.86 
	187.25,161.21 187.6,161.21 187.6,159.94 189.71,158.54 189.86,158.43 189.86,158.25 189.86,128.77 189.86,128.59 187.95,127.28 
	187.95,126.36 196.14,126.36 196.14,127.28 194.39,128.48 194.23,128.59 194.23,128.77 194.23,158.25 194.23,158.43 194.39,158.54 
	194.58,158.25 194.93,158.25 194.93,128.77 194.58,128.77 194.78,129.06 196.69,127.76 196.84,127.65 196.84,126.01 196.84,125.66 
	187.25,125.66 187.25,127.47 187.25,127.65 189.32,129.06 189.51,128.77 189.16,128.77 189.16,158.25 189.51,158.25 189.32,157.95 
	187.05,159.46 186.9,159.57 186.9,161.21 186.9,161.56 187.25,161.56 196.79,161.56 197.14,161.56 197.14,159.75 197.14,159.57 
	194.78,157.96 194.58,158.25 194.93,158.25 "/>
<g>
	<rect x="40.61" y="116.16" class="st1" width="220.4" height="54.85"/>
	<polygon class="st0" points="261,171 261,169.38 42.23,169.38 42.23,117.78 259.38,117.78 259.38,171 261,171 261,169.38 261,171 
		262.63,171 262.63,114.53 38.98,114.53 38.98,172.63 262.63,172.63 262.63,171 	"/>
</g>
<g>
	<polygon class="st0" points="55.98,127.46 57.89,129.02 57.89,158.25 55.63,159.75 55.63,161.21 65.17,161.21 65.17,159.75 
		62.96,158.25 62.96,145.24 68.38,145.24 69.69,147.9 71.25,147.9 71.25,139.42 69.69,139.42 68.38,142.18 62.96,142.18 
		62.96,128.97 70.49,128.97 72,134.4 74.4,134.4 74.4,126.01 55.98,126.01 	"/>
	<path class="st0" d="M93.69,127.57v0.18l1.91,1.3v23.16c0,2.07-0.4,3.46-1.15,4.32c-0.74,0.85-1.87,1.26-3.53,1.26
		c-1.48,0-2.59-0.39-3.35-1.23c-0.77-0.84-1.22-2.21-1.22-4.24v-23.16l2.06-1.4l0.16-0.11v-1.64v-0.35H78.18v1.81v0.18l2.21,1.51
		v23.16c0,3.29,1.09,5.75,2.88,7.36c1.79,1.62,4.24,2.38,6.91,2.38c2.67-0.03,5.1-0.71,6.86-2.28c1.77-1.58,2.83-4.03,2.83-7.46
		v-23.26l1.76-1.2l0.15-0.1v-1.74v-0.35h-8.08V127.57z"/>
	<path class="st0" d="M128.87,158.59c-0.52,0-0.97-0.34-1.38-0.89c-0.4-0.55-0.7-1.28-0.93-1.88l-2.36-6.48h0
		c-0.46-1.32-1.06-2.29-2.15-3.06c2.98-0.9,5.15-3.43,5.14-7.52v-4.57c0.01-3.14-1.16-5.33-3.03-6.67c-1.87-1.34-4.4-1.86-7.16-1.86
		h-10.54v1.8v0.19l1.86,1.3v29.11l-2.05,1.4l-0.15,0.1v1.64v0.35h0.35h9.53h0.35v-1.8v-0.19l-2.21-1.5v-10.95
		c1.24,0.03,2.05,0.2,2.62,0.61c0.63,0.45,1.08,1.22,1.58,2.56v0l2.46,6.43c0.5,1.31,0.82,2.56,1.46,3.53
		c0.63,0.98,1.67,1.63,3.34,1.62c1.14,0,2.71-0.14,3.82-0.69l0.19-0.1v-2.17v-0.44l-0.43,0.09L128.87,158.59z M114.08,129.47H117
		c1.68,0,2.7,0.44,3.34,1.2c0.64,0.77,0.93,1.95,0.93,3.52v4.57c0,1.56-0.32,2.74-0.99,3.51c-0.67,0.77-1.71,1.21-3.33,1.21h-2.87
		V129.47z"/>
	<path class="st0" d="M148.28,152.77c0,1.75-0.27,3.1-0.92,3.97c-0.65,0.86-1.68,1.35-3.46,1.36c-1.44-0.01-2.47-0.43-3.19-1.32
		c-0.72-0.89-1.13-2.32-1.13-4.36V135c0-2.16,0.53-3.57,1.29-4.44c0.76-0.87,1.78-1.24,2.88-1.24c1.72,0.03,2.71,0.63,3.34,1.59
		c0.63,0.96,0.87,2.34,0.87,3.89v0.96v0.35h5.93v-0.35v-10.2h-3.82h-0.28l-0.36,1.69c-1.59-1.49-3.78-1.94-5.83-1.94
		c-3.03,0-5.53,0.86-7.26,2.53c-1.74,1.66-2.68,4.1-2.68,7.16v17.42c0,3.27,1.12,5.72,2.98,7.32c1.87,1.61,4.44,2.37,7.31,2.37
		c2.86,0,5.42-0.69,7.27-2.22c1.86-1.53,2.97-3.88,2.96-7.07v-1.91v-0.35h-5.91V152.77z"/>
	<polygon class="st0" points="179.67,128.77 181.58,127.46 181.58,126.01 172.69,126.01 172.69,127.46 174.6,128.77 174.6,141.83 
		166.46,141.83 166.46,128.77 168.37,127.46 168.37,126.01 159.49,126.01 159.49,127.46 161.39,128.77 161.39,158.55 159.13,159.75 
		159.13,161.21 168.72,161.21 168.72,159.75 166.46,158.55 166.46,144.69 174.6,144.69 174.6,158.55 172.39,159.75 172.39,161.21 
		181.92,161.21 181.92,159.75 179.67,158.55 	"/>
	<polygon class="st0" points="194.58,128.77 196.49,127.47 196.49,126.01 187.6,126.01 187.6,127.47 189.51,128.77 189.51,158.25 
		187.25,159.75 187.25,161.21 196.79,161.21 196.79,159.75 194.58,158.25 	"/>
	<path class="st0" d="M218.04,152.97l-1.71,4.82h-6.93c0.11-0.09,0.22-0.19,0.29-0.31c0.21-0.34,0.26-0.73,0.26-1.15v-27.38
		l1.76-1.2l0.16-0.11v-1.64v-0.35h-9.75v1.8v0.19l1.92,1.3v29.11l-2.11,1.4l-0.15,0.1v1.64v0.35h0.34h18.38h0.35v-8.59h-2.56H218.04
		z"/>
	<path class="st0" d="M243.09,127.82c-1.86-1.52-4.47-2.15-7.53-2.15h-10.89v1.8v0.17l1.91,1.5v28.92l-2.06,1.4l-0.15,0.11v1.64
		v0.35h11.19c3,0,5.6-0.77,7.48-2.37c1.88-1.6,2.97-4.03,2.96-7.22V135.1C246,131.74,244.95,129.34,243.09,127.82z M232.25,157.39
		c0.23-0.34,0.3-0.74,0.3-1.2v-26.77h3.01c1.77,0.03,2.84,0.64,3.54,1.63c0.69,1,0.98,2.42,0.98,4.04v16.87
		c0,1.64-0.29,3.08-0.98,4.08c-0.7,0.99-1.77,1.61-3.55,1.64h-3.62C232.05,157.6,232.17,157.51,232.25,157.39z"/>
</g>
<g>
	<path class="st0" d="M247.71,126.41h-1.28v-0.76h3.4v0.76h-1.29v4.19h-0.82V126.41z"/>
	<path class="st0" d="M254.13,128.58c-0.03-0.64-0.06-1.41-0.05-2.08h-0.02c-0.15,0.6-0.33,1.27-0.53,1.89l-0.65,2.14h-0.63
		l-0.6-2.11c-0.17-0.63-0.33-1.31-0.45-1.92h-0.01c-0.02,0.65-0.05,1.43-0.08,2.11l-0.1,1.99h-0.77l0.3-4.95h1.08l0.59,1.99
		c0.16,0.58,0.3,1.17,0.41,1.72h0.02c0.12-0.54,0.27-1.15,0.45-1.72l0.62-1.98h1.07l0.26,4.95h-0.8L254.13,128.58z"/>
</g>
<g>
	<path class="st1" d="M119.67,206.96h-0.24c-2.13-2.15-3.4-3.43-4.23-4.3c-0.59-0.59-1.02-1.04-1.72-1.83h-0.02
		c0.02,0.5,0.02,0.88,0.02,1.89c0,3.44,0,3.95,0.16,4.04v0.08h-1.05h-0.96v-0.08c0.16-0.08,0.16-0.6,0.16-4.23V197h0.25
		c2.19,2.23,3.49,3.54,4.31,4.42c0.55,0.56,1.03,1.05,1.62,1.74h0.02c-0.01-0.58-0.01-1-0.01-2.16c0-3.23,0-3.75-0.17-3.83v-0.07
		h1.05h0.95v0.07c-0.15,0.08-0.15,0.6-0.15,3.98V206.96z"/>
	<path class="st1" d="M122.73,201.16c0-3.38,0-3.91-0.14-3.98v-0.08h1.07h1.08v0.08c-0.16,0.07-0.16,0.6-0.16,3.98v1.29
		c0,0.91,0.09,1.52,0.38,1.96c0.33,0.55,0.99,0.84,1.68,0.84c0.69,0,1.28-0.26,1.65-0.78c0.31-0.46,0.42-1.11,0.42-2.06v-1.26
		c0-3.37,0-3.91-0.17-3.98v-0.08h1.07h1.04v0.08c-0.15,0.07-0.15,0.61-0.15,3.98v1.26c0,1.35-0.19,2.2-0.62,2.9
		c-0.5,0.9-1.67,1.68-3.22,1.68c-1.62,0-2.85-0.67-3.44-1.83c-0.38-0.69-0.5-1.45-0.5-2.7V201.16z"/>
	<path class="st1" d="M135.42,198.66h-1.75c-0.4,0-0.69,0.05-0.82,0.2h-0.1v-1.76h2.93h1.22h3v1.76h-0.1
		c-0.16-0.16-0.43-0.2-0.81-0.2h-1.75v3.87c0,3.64,0,4.21,0.17,4.23v0.08h-1.07h-1.08v-0.08c0.17-0.1,0.17-0.6,0.17-4.23V198.66z"/>
	<path class="st1" d="M146.05,200.04c0-0.89-0.58-1.42-1.49-1.42l-0.49,0.02v2.97l0.36,0.01c0.34,0,0.68-0.1,0.93-0.25
		c0.34-0.2,0.7-0.61,0.7-1.32V200.04z M142.34,201.16c0-3.38,0-3.91-0.15-3.95v-0.07c0.21-0.01,0.55-0.03,0.89-0.04
		c0.29-0.01,0.82-0.02,1.13-0.02c0.7,0,1.32,0.07,1.85,0.25c0.76,0.24,1.78,0.96,1.78,2.62c0,1.16-0.58,1.91-1.01,2.23l-0.72,0.44
		v0.02c0.18,0.25,0.39,0.55,2.21,3.14c0.29,0.41,0.67,0.91,0.79,0.99v0.08h-1.05h-0.76l-0.4-0.05c-0.71-1.08-1.52-2.35-2.49-3.8
		h-0.33v0.5c0,2.68,0,3.2,0.15,3.28v0.08h-1h-1.02v-0.08c0.15-0.08,0.15-0.6,0.15-4.22V201.16z"/>
	<path class="st1" d="M152.98,202.53c0,3.63,0,4.07,0.17,4.23v0.08h-1.06h-1.1v-0.09c0.17-0.15,0.17-0.59,0.17-4.2v-1.38
		c0-3.38,0-3.83-0.16-3.95v-0.1h1.07h1.07v0.08c-0.16,0.14-0.16,0.59-0.16,3.97V202.53z"/>
	<path class="st1" d="M158.08,198.66h-1.74c-0.4,0-0.7,0.05-0.83,0.2h-0.1v-1.76h2.93h1.22h3v1.76h-0.1
		c-0.15-0.16-0.43-0.2-0.81-0.2h-1.75v3.87c0,3.64,0,4.21,0.17,4.23v0.08h-1.07h-1.08v-0.08c0.17-0.1,0.17-0.6,0.17-4.23V198.66z"/>
	<path class="st1" d="M166.83,202.53c0,3.63,0,4.07,0.17,4.23v0.08h-1.06h-1.11v-0.09c0.18-0.15,0.18-0.59,0.18-4.2v-1.38
		c0-3.38,0-3.83-0.16-3.95v-0.1h1.07h1.07v0.08c-0.16,0.14-0.16,0.59-0.16,3.97V202.53z"/>
	<path class="st1" d="M177.48,201.98c0-1.83-1.28-3.29-3.03-3.29c-1.8,0-3.09,1.43-3.09,3.31c0,1.84,1.27,3.31,3.09,3.31
		c1.8,0,3.03-1.46,3.03-3.32V201.98z M179.39,201.92c0,2.86-2.11,5.07-4.99,5.07c-2.79,0-4.94-2.19-4.94-4.98
		c0-2.87,2.18-5.04,5.06-5.04c2.81,0,4.87,2.12,4.87,4.93V201.92z"/>
	<path class="st1" d="M189.87,206.96h-0.24c-2.13-2.15-3.39-3.43-4.23-4.3c-0.58-0.59-1.02-1.04-1.71-1.83h-0.02
		c0.02,0.5,0.02,0.88,0.02,1.89c0,3.44,0,3.95,0.16,4.04v0.08h-1.05h-0.95v-0.08c0.16-0.08,0.16-0.6,0.16-4.23V197h0.24
		c2.2,2.23,3.5,3.54,4.32,4.42c0.54,0.56,1.02,1.05,1.62,1.74h0.03c-0.01-0.58-0.01-1-0.01-2.16c0-3.23,0-3.75-0.17-3.83v-0.07h1.05
		h0.95v0.07c-0.15,0.08-0.15,0.6-0.15,3.98V206.96z"/>
</g>
<path class="st1" d="M203.68,185.23l-23.72-1.49l-1.5,1.49l1.5,1.5L203.68,185.23z M176.02,186.73l-1.5-1.5l1.5-1.49l1.5,1.49
	L176.02,186.73z"/>
<path class="st1" d="M96.67,185.23l23.72,1.5l1.49-1.5l-1.49-1.49L96.67,185.23z M124.36,183.74l1.49,1.49l-1.49,1.5l-1.51-1.5
	L124.36,183.74z"/>
<g>
	<path class="st1" d="M137.3,181.44c0-0.94-0.41-1.74-1.17-2.19c-0.45-0.29-1.06-0.43-1.76-0.43l-0.82,0.02v5.45h0.82
		c0.58-0.04,1.11-0.17,1.54-0.39c0.39-0.18,0.78-0.53,1.01-0.92c0.22-0.39,0.39-0.9,0.39-1.52V181.44z M130.62,182.71
		c0-5.32-0.02-5.92-0.86-6.08v-0.31c0.69-0.02,1.66-0.04,2.4-0.04c0.8-0.02,1.57-0.04,2.4,0c1.23,0.04,2.42,0.27,3.32,0.76
		c1.46,0.78,2.5,2.23,2.5,4.37c0,0.98-0.25,1.84-0.6,2.52c-0.4,0.76-1,1.39-1.7,1.82c-0.64,0.43-1.39,0.72-2.23,0.88
		c-0.76,0.17-1.58,0.18-2.29,0.18v0.7c0,3.69,0.02,4.36,0.9,4.49v0.31c-0.76-0.02-1.58-0.02-2.41-0.02c-0.96,0-1.7,0-2.26,0.02V192
		c0.86-0.14,0.85-0.8,0.85-6.53V182.71z"/>
	<path class="st1" d="M145.96,182.71c0-5.32,0-6.04-0.82-6.12v-0.31c0.72,0,2.43,0.02,4.36,0.02c1.74,0,3.59,0,4.88-0.02
		c-0.04,1.01-0.06,2.03-0.08,3.48h-0.31c-0.13-0.78-0.86-0.98-2.26-0.98h-2.71v4.13h2.32c1.45,0,1.84-0.04,2-0.49h0.29
		c-0.02,0.61-0.02,1.17-0.02,1.68c0,0.61,0,1.18,0.02,1.86h-0.29c-0.12-0.49-0.55-0.57-1.96-0.57h-2.36v3.75
		c0,0.43,0.04,0.53,0.41,0.57c1.03,0.02,2.17,0.02,3.12,0c1-0.02,1.59-0.16,1.74-0.86h0.31c-0.04,1.48-0.06,2.42-0.06,3.44
		c-1.41-0.02-3.08-0.02-4.59-0.02c-2.21,0-4.16,0-4.86,0.02V192c0.86-0.09,0.86-0.8,0.86-6.53V182.71z"/>
	<path class="st1" d="M163.78,178.78h-2.77c-1.03,0-1.52,0.26-1.7,1.06h-0.3c0-1.35-0.03-2.56-0.03-3.57
		c1.68,0.02,3.59,0.02,5.16,0.02h2.3c1.75,0,3.64,0,5.16-0.02v3.57h-0.33c-0.18-0.84-0.65-1.06-1.66-1.06h-2.77v6.68
		c0,5.75,0,6.51,0.98,6.53v0.31c-0.68-0.02-1.57-0.02-2.5-0.02c-0.98,0-1.92,0-2.5,0.02v-0.31c0.94-0.1,0.94-0.79,0.94-6.53V178.78z
		"/>
</g>
</svg>
